<?xml version="1.0" encoding="UTF-8"?>
<svg version="1.1" xmlns="http://www.w3.org/2000/svg" width="619" height="140">
<path d="M0 0 C204.27 0 408.54 0 619 0 C619 46.2 619 92.4 619 140 C414.73 140 210.46 140 0 140 C0 93.8 0 47.6 0 0 Z " fill="#F1F1F1" transform="translate(0,0)"/>
<path d="M0 0 C8.57451225 5.30471853 12.57689865 12.00315529 15.30395508 21.4777832 C16.29678496 25.81045072 16.45889431 30.00922318 16.42578125 34.44140625 C16.41933594 35.3530957 16.41289063 36.26478516 16.40625 37.20410156 C16.10416434 48.47269168 13.18670401 58.16835217 5.12109375 66.41796875 C1.69134406 69.18862064 -1.94139688 70.75092062 -6.07421875 72.19140625 C-7.06421875 72.68640625 -7.06421875 72.68640625 -8.07421875 73.19140625 C-15.53040844 73.95710923 -20.81377527 73.36503524 -27.07421875 69.19140625 C-29.38421875 66.55140625 -31.69421875 63.91140625 -34.07421875 61.19140625 C-34.40421875 73.73140625 -34.73421875 86.27140625 -35.07421875 99.19140625 C-42.66421875 99.19140625 -50.25421875 99.19140625 -58.07421875 99.19140625 C-58.07421875 65.86140625 -58.07421875 32.53140625 -58.07421875 -1.80859375 C-50.48421875 -1.80859375 -42.89421875 -1.80859375 -35.07421875 -1.80859375 C-34.74421875 1.82140625 -34.41421875 5.45140625 -34.07421875 9.19140625 C-33.24921875 7.95390625 -32.42421875 6.71640625 -31.57421875 5.44140625 C-23.90785744 -4.59067677 -11.02130512 -5.78265918 0 0 Z " fill="#E1B16D" transform="translate(596.07421875,34.80859375)"/>
<path d="M0 0 C56.51051625 0 56.51051625 0 67.16796875 10.04296875 C74.8240606 18.14531732 76.49658529 24.51641532 76.42236328 35.56591797 C76.1279992 44.34104581 73.86291909 52.0424181 67.69140625 58.5078125 C58.20497696 66.87690255 48.26743756 68.46279795 35.9375 68.1875 C31.998125 68.125625 28.05875 68.06375 24 68 C24 78.23 24 88.46 24 99 C16.08 99 8.16 99 0 99 C0 66.33 0 33.66 0 0 Z " fill="#E1B16D" transform="translate(315,8)"/>
<path d="M0 0 C56.43982495 0 56.43982495 0 66.91015625 9.78515625 C74.41259597 17.79731587 76.57742466 24.97288099 76.40039062 35.76147461 C76.00182484 45.77101145 73.05927273 52.72852469 66 60 C56.82859504 67.50897107 46.91693372 68.43331694 35.4375 68.1875 C31.333125 68.125625 27.22875 68.06375 23 68 C23 77.9 23 87.8 23 98 C15.41 98 7.82 98 0 98 C0 65.66 0 33.32 0 0 Z " fill="#010101" transform="translate(8,8)"/>
<path d="M0 0 C4.64419852 3.32178267 8.82538808 7.23808212 12 12 C12.37125 12.55300781 12.7425 13.10601562 13.125 13.67578125 C17.87298846 22.16610783 16 28.27277389 16 39 C-0.17 39 -16.34 39 -33 39 C-30.92653106 48.21940614 -30.92653106 48.21940614 -25 53 C-21.54641994 54.72679003 -17.78326166 54.36243011 -14 54 C-9.93337338 52.44728802 -8.42480398 51.63720598 -6 48 C-3.75341797 47.65942383 -3.75341797 47.65942383 -0.9921875 47.70703125 C-0.00605469 47.71669922 0.98007813 47.72636719 1.99609375 47.73632812 C3.02863281 47.76146484 4.06117188 47.78660156 5.125 47.8125 C6.68541016 47.83280273 6.68541016 47.83280273 8.27734375 47.85351562 C10.85207627 47.88894772 13.4257833 47.93834779 16 48 C15.10956242 55.04255176 12.31100544 60.13004781 6.91796875 64.8046875 C-4.08121067 72.54841802 -15.93650546 73.57037626 -29.00390625 71.53125 C-37.87895352 69.19790424 -46.0009614 63.75765442 -51 56 C-56.58389625 44.74272198 -58.07355679 31.82322802 -54.4375 19.6875 C-50.74788293 9.96503537 -44.191854 2.88271872 -35.08984375 -2.03125 C-24.63600317 -6.38198134 -9.81050012 -5.53661888 0 0 Z " fill="#020202" transform="translate(229,36)"/>
<path d="M0 0 C8.28911877 5.91491753 13.33198785 13.68991608 15.609375 23.55859375 C15.609375 28.50859375 15.609375 33.45859375 15.609375 38.55859375 C-0.560625 38.55859375 -16.730625 38.55859375 -33.390625 38.55859375 C-31.8134197 47.2808924 -31.8134197 47.2808924 -26.390625 52.55859375 C-22.47042059 54.51869596 -17.67450924 53.91145705 -13.390625 53.55859375 C-9.65032315 51.95560724 -8.65904035 50.96121677 -6.390625 47.55859375 C-4.14404297 47.21801758 -4.14404297 47.21801758 -1.3828125 47.265625 C-0.39667969 47.27529297 0.58945313 47.28496094 1.60546875 47.29492188 C2.63800781 47.32005859 3.67054688 47.34519531 4.734375 47.37109375 C6.29478516 47.39139648 6.29478516 47.39139648 7.88671875 47.41210938 C10.46145127 47.44754147 13.0351583 47.49694154 15.609375 47.55859375 C12.9255423 56.49510907 9.48424058 62.47770166 1.296875 67.43359375 C-8.88366927 72.52386589 -21.74875018 73.31273737 -32.703125 70.43359375 C-42.4234072 67.00196703 -48.7486515 61.20718088 -53.64453125 52.26953125 C-58.21265371 41.98727651 -58.36864555 27.18430231 -54.42578125 16.62109375 C-49.8674564 7.53884651 -42.07763394 -0.32421371 -32.42578125 -3.78515625 C-21.81371015 -6.07965811 -9.42340905 -5.68176134 0 0 Z " fill="#020202" transform="translate(148.390625,36.44140625)"/>
<path d="M0 0 C7.38506646 5.72445794 9.87786051 10.32012804 13.25 19.3125 C13.25 25.2525 13.25 31.1925 13.25 37.3125 C-2.92 37.3125 -19.09 37.3125 -35.75 37.3125 C-32.91293503 47.52839987 -32.91293503 47.52839987 -29.0625 51 C-23.50805199 53.20081902 -18.93696182 53.16298515 -13.375 51 C-10.79531777 49.51931422 -10.79531777 49.51931422 -9.39135742 47.7253418 C-7.15750366 45.80249311 -5.7782304 45.96653217 -2.86328125 46.01953125 C-1.4565918 46.0340332 -1.4565918 46.0340332 -0.02148438 46.04882812 C0.95498047 46.07396484 1.93144531 46.09910156 2.9375 46.125 C3.92556641 46.13853516 4.91363281 46.15207031 5.93164062 46.16601562 C8.37164231 46.20137797 10.81054719 46.25072967 13.25 46.3125 C12.44351108 53.92832152 10.03446357 58.15996375 4.16796875 63.046875 C-3.64159414 68.57238009 -11.53483472 70.89086862 -21.0625 70.8125 C-21.88991699 70.80605469 -22.71733398 70.79960938 -23.56982422 70.79296875 C-33.86984488 70.48772345 -42.39058507 66.99924267 -49.76953125 59.6875 C-58.81052182 48.84544424 -59.28000243 36.70314559 -58.14306641 23.09082031 C-56.85752051 14.0041667 -52.08665451 6.24296638 -44.80078125 0.640625 C-31.58180882 -7.92023334 -13.2479416 -9.09586428 0 0 Z " fill="#E1B16D" transform="translate(511.75,37.6875)"/>
<path d="M0 0 C0 6.93 0 13.86 0 21 C-7.125 20.75 -7.125 20.75 -9.33251953 20.63964844 C-14.40007317 20.55443327 -17.13527027 21.81188467 -21 25 C-23.11338201 28.17007302 -23.26031828 29.01645286 -23.31884766 32.6550293 C-23.33871735 33.59577805 -23.35858704 34.53652679 -23.37905884 35.50578308 C-23.39061005 36.51836685 -23.40216125 37.53095062 -23.4140625 38.57421875 C-23.43342865 39.61318802 -23.4527948 40.65215729 -23.4727478 41.72261047 C-23.53257299 45.04415656 -23.57894104 48.36573724 -23.625 51.6875 C-23.66317705 53.93816624 -23.70222861 56.18881782 -23.7421875 58.43945312 C-23.83992454 63.95955959 -23.91947075 69.47950816 -24 75 C-31.92 75 -39.84 75 -48 75 C-48 50.58 -48 26.16 -48 1 C-40.41 1 -32.82 1 -25 1 C-24.67 4.63 -24.34 8.26 -24 12 C-23.67 11.13375 -23.34 10.2675 -23 9.375 C-17.27439042 -0.28696616 -10.68940602 -0.66808788 0 0 Z " fill="#E1B26F" transform="translate(451,32)"/>
<path d="M0 0 C0 6.93 0 13.86 0 21 C-2.18625 20.9175 -4.3725 20.835 -6.625 20.75 C-12.55547578 20.75598433 -15.78100078 20.78100078 -20 25 C-23.76898018 29.70366444 -23.47240253 34.35027959 -23.51171875 40.11328125 C-23.52966995 41.08283249 -23.54762115 42.05238373 -23.56611633 43.05131531 C-23.62016049 46.13833306 -23.65409647 49.2251967 -23.6875 52.3125 C-23.72067824 54.40952662 -23.75516837 56.50653293 -23.79101562 58.60351562 C-23.878346 63.73569855 -23.93846562 68.86718386 -24 74 C-31.59 74 -39.18 74 -47 74 C-47 49.91 -47 25.82 -47 1 C-39.74 1 -32.48 1 -25 1 C-25 5.29 -25 9.58 -25 14 C-24.34 14 -23.68 14 -23 14 C-22.95875 13.319375 -22.9175 12.63875 -22.875 11.9375 C-21.47400283 7.23415234 -18.28145498 3.5127574 -14.19140625 0.80078125 C-9.70077862 -0.84017893 -4.70536207 -0.10229048 0 0 Z " fill="#000000" transform="translate(305,32)"/>
<path d="M0 0 C5.1674067 1.8237906 7.41163665 4.20673454 10 9 C11.88516263 16.45325888 12.23991504 25.19308193 9.03125 32.30859375 C7.09597163 35.48274351 5.18776116 37.11095635 2 39 C-2.2325668 39.77634382 -5.77087786 39.4370212 -9.8125 38 C-14.3325151 33.86741476 -15.77947288 30.16740294 -16.38671875 24.19921875 C-16.70588534 16.66600074 -16.49528952 10.3177042 -12 4 C-8.21180864 -0.09534202 -5.49909705 -0.67532771 0 0 Z " fill="#F2F1F0" transform="translate(577,50)"/>
<path d="M0 0 C2.495625 -0.061875 4.99125 -0.12375 7.5625 -0.1875 C8.33408447 -0.21481201 9.10566895 -0.24212402 9.90063477 -0.27026367 C15.96378617 -0.3421221 20.55989171 0.95558494 25.3125 4.9375 C28.8785254 9.29597549 29.48293993 12.30130877 29 18 C27.3348271 23.17080005 25.57079843 26.02898102 21 29 C18.23434618 29.92188461 16.61716298 30.11785222 13.76953125 30.09765625 C13.04612549 30.09515869 12.32271973 30.09266113 11.57739258 30.09008789 C10.66497803 30.08098389 9.75256348 30.07187988 8.8125 30.0625 C5.904375 30.041875 2.99625 30.02125 0 30 C0 20.1 0 10.2 0 0 Z " fill="#F2F0ED" transform="translate(338,27)"/>
<path d="M0 0 C4.021875 -0.0928125 4.021875 -0.0928125 8.125 -0.1875 C8.95789551 -0.21481201 9.79079102 -0.24212402 10.64892578 -0.27026367 C17.01530497 -0.34089995 20.95515536 1.26632737 25.875 5.4375 C28.85387244 9.26198784 28.51678891 13.43187679 28.46875 18.09765625 C27.79464831 22.27146921 26.16627875 24.97950609 23 27.75 C19.8853915 29.69663031 17.35768816 30.12310417 13.76953125 30.09765625 C13.04612549 30.09515869 12.32271973 30.09266113 11.57739258 30.09008789 C10.66497803 30.08098389 9.75256348 30.07187988 8.8125 30.0625 C5.904375 30.041875 2.99625 30.02125 0 30 C0 20.1 0 10.2 0 0 Z " fill="#EBEBEB" transform="translate(31,27)"/>
<path d="M0 0 C4.43790593 2.17860837 6.96507145 4.47793655 9 9 C9 10.32 9 11.64 9 13 C0.09 13 -8.82 13 -18 13 C-16.81018901 4.67132304 -16.81018901 4.67132304 -12.1640625 1.10546875 C-8.16095696 -0.93943896 -4.3456833 -0.83901806 0 0 Z " fill="#F2F0ED" transform="translate(495,49)"/>
<path d="M0 0 C4.43790593 2.17860837 6.96507145 4.47793655 9 9 C9 10.32 9 11.64 9 13 C0.09 13 -8.82 13 -18 13 C-16.81018901 4.67132304 -16.81018901 4.67132304 -12.1640625 1.10546875 C-8.16095696 -0.93943896 -4.3456833 -0.83901806 0 0 Z " fill="#E8E8E8" transform="translate(215,49)"/>
<path d="M0 0 C3.21077578 2.29341127 4.27277434 4.19394126 5.625 7.875 C5.625 9.195 5.625 10.515 5.625 11.875 C-3.285 11.875 -12.195 11.875 -21.375 11.875 C-20.42312889 6.16377334 -20.15378972 4.76175514 -16.375 0.875 C-11.13868451 -2.27557137 -5.65718467 -1.88572822 0 0 Z " fill="#E9E9E9" transform="translate(136.375,50.125)"/>
</svg>
