<svg width="24" height="24" viewBox="0 0 24 24" fill="none" xmlns="http://www.w3.org/2000/svg">
<path d="M22.132 10.033C22.1109 9.91784 22.0502 9.81377 21.9603 9.73885C21.8704 9.66393 21.757 9.62292 21.64 9.62296H12.222C12.0897 9.62296 11.9629 9.67536 11.8692 9.7687C11.7754 9.86203 11.7225 9.9887 11.722 10.121V13.99C11.722 14.1226 11.7747 14.2497 11.8684 14.3435C11.9622 14.4373 12.0894 14.49 12.222 14.49H16.957C16.6607 15.3508 16.0888 16.0899 15.33 16.593C14.4031 17.1844 13.3213 17.4872 12.222 17.463C11.0789 17.4521 9.96844 17.0807 9.04875 16.4018C8.12907 15.7229 7.4471 14.7711 7.1 13.682V13.68C6.71598 12.5517 6.71598 11.3282 7.1 10.2V10.198C7.44699 9.10913 8.12866 8.15752 9.04795 7.47865C9.96723 6.79978 11.0773 6.42825 12.22 6.41696C13.5131 6.39533 14.7629 6.88269 15.7 7.77396C15.7944 7.86464 15.9206 7.91471 16.0514 7.9134C16.1823 7.91209 16.3075 7.85951 16.4 7.76696L19.268 4.89796C19.3156 4.85045 19.353 4.79383 19.3782 4.7315C19.4034 4.66917 19.4158 4.60241 19.4145 4.53519C19.4133 4.46798 19.3986 4.4017 19.3712 4.34032C19.3438 4.27894 19.3042 4.22372 19.255 4.17796C17.3505 2.39459 14.832 1.41395 12.223 1.43996C10.2753 1.43399 8.36465 1.97248 6.7067 2.99467C5.04875 4.01686 3.70948 5.48207 2.84 7.22496C2.10551 8.68817 1.72302 10.3027 1.72302 11.94C1.72302 13.5772 2.10551 15.1917 2.84 16.655C3.70948 18.3978 5.04875 19.8631 6.7067 20.8852C8.36465 21.9074 10.2753 22.4459 12.223 22.44C14.781 22.5073 17.2681 21.5943 19.175 19.888L19.18 19.886C20.2128 18.8893 21.0259 17.6878 21.5671 16.3586C22.1084 15.0293 22.3658 13.6016 22.323 12.167C22.323 11.451 22.258 10.737 22.132 10.033ZM12.223 2.43996C14.4001 2.41706 16.514 3.17122 18.185 4.56696L16.025 6.72696C14.9485 5.86154 13.6041 5.39831 12.223 5.41696C10.9887 5.42574 9.78325 5.7907 8.75136 6.46798C7.71948 7.14526 6.90508 8.10606 6.406 9.23496L3.926 7.31096C4.7462 5.83065 5.94887 4.59776 7.40838 3.74109C8.86788 2.88442 10.5307 2.4344 12.223 2.43996ZM2.723 11.941C2.71981 10.666 2.976 9.40376 3.476 8.23096L6.049 10.225C5.73673 11.3473 5.73673 12.5336 6.049 13.656L3.476 15.65C2.9809 14.4756 2.72458 13.2144 2.722 11.94M12.222 21.44C10.5294 21.4456 8.86634 20.9965 7.40663 20.1397C5.94692 19.2828 4.74415 18.0496 3.924 16.569L6.405 14.645C6.90408 15.7739 7.71848 16.7347 8.75036 17.4119C9.78225 18.0892 10.9877 18.4542 12.222 18.463C13.3954 18.4807 14.5526 18.1885 15.577 17.616L15.687 17.701L18.05 19.537C16.382 20.819 14.3251 21.4906 12.222 21.44ZM18.804 18.856L16.426 17.01C17.2983 16.251 17.8868 15.2183 18.095 14.081C18.1082 14.0089 18.1054 13.9349 18.0868 13.8641C18.0682 13.7933 18.0343 13.7274 17.9875 13.6711C17.9407 13.6148 17.882 13.5695 17.8158 13.5384C17.7495 13.5073 17.6772 13.4911 17.604 13.491H12.722V10.622H21.214C21.286 11.1346 21.322 11.6496 21.322 12.167C21.3942 14.6412 20.4897 17.0434 18.804 18.856Z" fill="#171C28"/>
</svg>
