<svg xmlns="http://www.w3.org/2000/svg" version="1.1" xmlns:xlink="http://www.w3.org/1999/xlink" xmlns:svgjs="http://svgjs.dev/svgjs" width="1500" height="924" viewBox="0 0 1500 924"><g transform="matrix(1,0,0,1,-0.8449863143056291,-0.3183369506734266)"><svg viewBox="0 0 396 244" data-background-color="#ffffff" preserveAspectRatio="xMidYMid meet" height="924" width="1500" xmlns="http://www.w3.org/2000/svg" xmlns:xlink="http://www.w3.org/1999/xlink"><g id="tight-bounds" transform="matrix(1,0,0,1,0.2569236130233321,0.08406300429038538)"><svg viewBox="0 0 395.52 243.83187399141923" height="243.83187399141923" width="395.52"><g><svg viewBox="0 0 395.52 243.83187399141923" height="243.83187399141923" width="395.52"><g transform="matrix(1,0,0,1,0,126.45548147852611)"><svg viewBox="0 0 395.52 117.3763925128931" height="117.3763925128931" width="395.52"><g id="textblocktransform"><svg viewBox="0 0 395.52 117.3763925128931" height="117.3763925128931" width="395.52" id="textblock"><g><svg viewBox="0 0 395.52 117.3763925128931" height="117.3763925128931" width="395.52"><g transform="matrix(1,0,0,1,0,0)"><svg width="395.52" viewBox="-0.47552000000000005 -16.052027421875 160.82448695261735 47.73095636120641" height="117.3763925128931" data-palette-color="#c5c6c7"><path d="M1.146 11.871v0c-0.366-0.145-0.709-0.354-1.032-0.626-0.331-0.268-0.528-0.676-0.59-1.224-0.062-0.548 0.093-1.29 0.466-2.226v0c0.3-0.756 0.749-1.686 1.346-2.79 0.597-1.104 1.264-2.277 2.001-3.519v0c0.75-1.273 1.492-2.635 2.227-4.087 0.735-1.451 1.409-2.948 2.022-4.49v0c0.239-0.601 0.481-1.254 0.726-1.961 0.245-0.706 0.453-1.409 0.623-2.109v0c-0.26 0.04-0.501 0.059-0.722 0.057-0.228-0.004-0.432-0.042-0.611-0.114v0c-0.514-0.204-0.574-0.802-0.18-1.793v0c0.36-0.904 0.867-1.585 1.522-2.042 0.649-0.459 1.632-0.757 2.948-0.894v0c1.282-0.157 2.713-0.138 4.292 0.059 1.581 0.191 3.109 0.58 4.584 1.166v0c2.924 1.162 4.964 2.863 6.118 5.101 1.149 2.236 1.214 4.633 0.197 7.192v0c-0.623 1.567-1.514 2.888-2.673 3.963-1.159 1.075-2.455 1.897-3.887 2.468-1.43 0.565-2.86 0.868-4.289 0.91-1.43 0.041-2.73-0.171-3.901-0.636v0c-1.115-0.443-1.772-0.992-1.972-1.645-0.191-0.657-0.101-1.45 0.268-2.379v0c0.18-0.452 0.397-0.846 0.653-1.183 0.256-0.336 0.566-0.431 0.931-0.286v0c0.087 0.034 0.214 0.103 0.382 0.206 0.174 0.105 0.339 0.221 0.496 0.348v0c0.167 0.102 0.403 0.25 0.707 0.442 0.31 0.195 0.675 0.376 1.096 0.544v0c1.66 0.66 3.194 0.728 4.601 0.203 1.413-0.522 2.412-1.52 2.998-2.994v0c0.611-1.536 0.517-2.969-0.282-4.298-0.793-1.327-2.093-2.35-3.903-3.069v0c-0.663-0.264-1.362-0.481-2.098-0.651-0.736-0.171-1.486-0.304-2.251-0.4v0c-0.883 1.952-1.993 4.129-3.329 6.533v0c-0.778 1.434-1.526 2.855-2.243 4.262-0.718 1.408-1.315 2.713-1.793 3.915v0c-0.419 1.053-0.688 2.019-0.807 2.897-0.126 0.876-0.003 1.721 0.369 2.535v0c0.26 0.591 0.294 1.128 0.102 1.612v0c-0.264 0.663-0.88 1.114-1.851 1.352-0.973 0.245-2.06 0.128-3.261-0.349zM26.476 21.048v0c-2.371-0.681-4.025-1.889-4.962-3.622-0.936-1.74-1.055-3.824-0.357-6.252v0c0.637-2.217 1.699-4.09 3.186-5.618 1.487-1.529 3.202-2.597 5.145-3.204 1.95-0.605 3.905-0.626 5.865-0.062v0c1.871 0.538 3.234 1.429 4.091 2.674 0.858 1.239 1.067 2.623 0.627 4.155v0c-0.348 1.211-1.045 2.225-2.092 3.04-1.038 0.812-2.269 1.342-3.693 1.592-1.418 0.251-2.893 0.157-4.424-0.283v0c-1.871-0.538-3.275-1.396-4.213-2.574v0c-0.387 1.443-0.228 2.737 0.476 3.883 0.698 1.144 1.796 1.931 3.296 2.362v0c0.903 0.26 1.876 0.362 2.918 0.308 1.042-0.054 1.987-0.265 2.835-0.631v0c0.549-0.245 1.009-0.313 1.381-0.207v0c0.314 0.09 0.541 0.266 0.68 0.529 0.148 0.258 0.177 0.543 0.087 0.857v0c-0.197 0.686-1.049 1.419-2.557 2.199v0c-2.662 1.392-5.424 1.677-8.289 0.854zM30.326 10.261v0c1.128 0.324 2.13 0.359 3.008 0.105 0.884-0.252 1.429-0.737 1.635-1.454v0c0.169-0.589 0.051-1.119-0.354-1.59-0.406-0.47-1.044-0.831-1.916-1.082v0c-1.153-0.331-2.247-0.316-3.28 0.046-1.025 0.357-1.884 1.03-2.578 2.017v0c0.355 0.407 0.853 0.786 1.494 1.137 0.641 0.351 1.305 0.625 1.991 0.821zM47.992 25.948v0c-2.429-0.428-4.201-1.455-5.316-3.08-1.114-1.631-1.451-3.691-1.012-6.18v0c0.401-2.272 1.26-4.246 2.577-5.922 1.318-1.677 2.911-2.919 4.78-3.727 1.875-0.807 3.817-1.033 5.826-0.679v0c1.917 0.338 3.367 1.081 4.349 2.229 0.983 1.141 1.337 2.497 1.06 4.066v0c-0.219 1.241-0.805 2.322-1.76 3.244-0.947 0.916-2.115 1.573-3.505 1.971-1.384 0.399-2.86 0.46-4.429 0.184v0c-1.917-0.338-3.404-1.044-4.46-2.117v0c-0.233 1.475 0.061 2.746 0.881 3.811 0.814 1.064 1.99 1.732 3.526 2.003v0c0.926 0.163 1.904 0.163 2.935-0.001 1.031-0.164 1.948-0.472 2.752-0.926v0c0.52-0.301 0.971-0.418 1.352-0.35v0c0.322 0.057 0.566 0.208 0.732 0.454 0.174 0.241 0.233 0.522 0.176 0.843v0c-0.124 0.703-0.894 1.521-2.311 2.456v0c-2.5 1.664-5.218 2.238-8.153 1.721zM50.686 14.816v0c1.156 0.204 2.156 0.133 3.002-0.212 0.853-0.344 1.344-0.883 1.474-1.618v0c0.106-0.604-0.067-1.119-0.52-1.544-0.453-0.425-1.126-0.716-2.019-0.874v0c-1.182-0.208-2.268-0.078-3.257 0.39-0.982 0.463-1.766 1.222-2.351 2.277v0c0.396 0.368 0.931 0.692 1.605 0.973 0.675 0.281 1.363 0.484 2.066 0.608zM65.352 28.179v0c-0.519-0.038-0.924-0.158-1.217-0.36-0.299-0.202-0.384-0.509-0.253-0.921v0c0.461-1.363 0.863-2.758 1.208-4.183 0.351-1.418 0.575-2.792 0.673-4.122v0c0.125-1.715 0.111-2.977-0.044-3.783-0.155-0.807-0.397-1.376-0.728-1.707-0.337-0.332-0.758-0.6-1.265-0.805v0c-0.219-0.11-0.409-0.254-0.569-0.433-0.168-0.173-0.241-0.405-0.22-0.697v0c0.033-0.452 0.246-0.938 0.638-1.458 0.399-0.526 0.936-0.968 1.611-1.326 0.675-0.358 1.434-0.507 2.278-0.445v0c1.097 0.08 1.837 0.519 2.22 1.316 0.383 0.79 0.53 1.8 0.44 3.03v0c0.673-1.254 1.467-2.229 2.38-2.924 0.913-0.695 2.018-0.995 3.315-0.901v0c0.871 0.064 1.582 0.31 2.132 0.738 0.557 0.428 0.803 1.081 0.739 1.959v0c-0.064 0.871-0.406 1.665-1.027 2.381-0.621 0.723-1.224 1.064-1.809 1.021v0c-0.093-0.007-0.205-0.032-0.336-0.075-0.124-0.042-0.231-0.134-0.32-0.274v0c-0.381-0.543-0.881-0.837-1.5-0.882v0c-0.938-0.069-1.807 0.483-2.608 1.654-0.801 1.178-1.311 2.849-1.529 5.012v0c-0.026 0.814-0.063 1.64-0.112 2.479-0.048 0.845-0.087 1.461-0.115 1.846v0c-0.088 1.197-0.489 2.16-1.204 2.89-0.722 0.729-1.648 1.053-2.778 0.97zM84.052 28.834v0c-0.393 0.011-0.792-0.044-1.196-0.166-0.41-0.115-0.752-0.412-1.025-0.891-0.274-0.479-0.425-1.222-0.454-2.228v0c-0.023-0.813 0.021-1.845 0.132-3.095 0.111-1.25 0.26-2.592 0.446-4.024v0c0.185-1.466 0.328-3.011 0.428-4.634 0.101-1.624 0.127-3.265 0.08-4.924v0c-0.018-0.646-0.055-1.342-0.109-2.088-0.055-0.745-0.142-1.473-0.262-2.184v0c-0.223 0.14-0.436 0.253-0.641 0.339-0.211 0.086-0.413 0.132-0.606 0.137v0c-0.553 0.016-0.845-0.51-0.876-1.576v0c-0.028-0.973 0.169-1.799 0.59-2.477 0.414-0.679 1.199-1.341 2.355-1.988v0c1.115-0.652 2.437-1.2 3.964-1.644 1.528-0.45 3.085-0.698 4.671-0.743v0c3.145-0.089 5.691 0.665 7.638 2.264 1.94 1.599 2.949 3.774 3.026 6.526v0c0.048 1.686-0.248 3.252-0.886 4.698-0.639 1.445-1.503 2.714-2.593 3.805-1.09 1.085-2.283 1.929-3.58 2.533-1.297 0.604-2.575 0.924-3.834 0.959v0c-1.2 0.034-2.02-0.209-2.462-0.73-0.435-0.528-0.667-1.292-0.695-2.291v0c-0.014-0.486 0.03-0.935 0.132-1.345 0.102-0.41 0.349-0.62 0.742-0.631v0c0.093-0.003 0.237 0.01 0.431 0.038 0.201 0.028 0.399 0.069 0.594 0.123v0c0.194 0.028 0.469 0.07 0.824 0.127 0.362 0.056 0.769 0.078 1.222 0.065v0c1.786-0.051 3.221-0.595 4.306-1.633 1.091-1.038 1.614-2.35 1.568-3.937v0c-0.047-1.653-0.7-2.931-1.959-3.835-1.253-0.905-2.852-1.329-4.799-1.274v0c-0.713 0.02-1.441 0.098-2.184 0.232-0.743 0.135-1.485 0.309-2.226 0.523v0c-0.039 2.142-0.196 4.581-0.472 7.317v0c-0.147 1.625-0.272 3.226-0.374 4.802-0.102 1.577-0.134 3.012-0.097 4.305v0c0.032 1.133 0.167 2.126 0.405 2.98 0.231 0.854 0.679 1.581 1.342 2.182v0c0.473 0.44 0.716 0.92 0.732 1.44v0c0.02 0.713-0.368 1.371-1.165 1.974-0.796 0.61-1.841 0.933-3.133 0.969zM108.494 27.517v0c-0.515 0.069-0.937 0.035-1.265-0.103-0.334-0.137-0.48-0.42-0.436-0.849v0c0.172-1.429 0.281-2.876 0.326-4.342 0.053-1.46-0.008-2.851-0.185-4.172v0c-0.228-1.705-0.501-2.936-0.817-3.694-0.317-0.758-0.671-1.266-1.062-1.523-0.398-0.256-0.865-0.432-1.402-0.529v0c-0.237-0.062-0.453-0.165-0.647-0.306-0.2-0.135-0.319-0.347-0.358-0.639v0c-0.06-0.449 0.049-0.968 0.327-1.557 0.283-0.596 0.719-1.139 1.305-1.627 0.587-0.489 1.3-0.79 2.139-0.902v0c1.09-0.146 1.904 0.132 2.443 0.833 0.537 0.695 0.887 1.654 1.05 2.876v0c0.402-1.365 0.979-2.482 1.731-3.349 0.752-0.867 1.772-1.387 3.06-1.56v0c0.866-0.116 1.612-0.021 2.238 0.285 0.633 0.305 1.008 0.894 1.124 1.767v0c0.116 0.866-0.057 1.713-0.517 2.541-0.46 0.835-0.981 1.292-1.562 1.369v0c-0.093 0.012-0.207 0.011-0.344-0.004-0.13-0.016-0.253-0.084-0.37-0.203v0c-0.484-0.453-1.034-0.638-1.648-0.556v0c-0.932 0.125-1.67 0.842-2.214 2.153-0.543 1.317-0.701 3.057-0.472 5.219v0c0.141 0.802 0.274 1.618 0.399 2.448 0.126 0.837 0.214 1.448 0.265 1.831v0c0.159 1.189-0.036 2.214-0.587 3.075-0.557 0.862-1.398 1.368-2.521 1.518zM129.35 23.991v0c-2.409 0.529-4.439 0.254-6.088-0.824-1.651-1.085-2.747-2.861-3.289-5.329v0c-0.495-2.253-0.452-4.406 0.129-6.458 0.58-2.052 1.58-3.807 3-5.266 1.427-1.46 3.137-2.408 5.129-2.845v0c1.901-0.417 3.525-0.282 4.871 0.405 1.344 0.681 2.187 1.8 2.528 3.356v0c0.27 1.231 0.139 2.454-0.392 3.669-0.527 1.208-1.357 2.26-2.491 3.158-1.127 0.896-2.469 1.515-4.026 1.856v0c-1.901 0.417-3.545 0.331-4.93-0.259v0c0.346 1.453 1.102 2.516 2.266 3.188 1.158 0.674 2.499 0.844 4.023 0.51v0c0.918-0.202 1.823-0.574 2.713-1.118 0.891-0.544 1.622-1.178 2.193-1.904v0c0.366-0.476 0.738-0.756 1.116-0.839v0c0.319-0.07 0.602-0.023 0.85 0.141 0.253 0.156 0.414 0.394 0.484 0.713v0c0.153 0.697-0.248 1.747-1.202 3.151v0c-1.678 2.491-3.973 4.056-6.884 4.695zM127.603 12.672v0c1.146-0.252 2.045-0.698 2.696-1.339 0.658-0.643 0.906-1.329 0.746-2.058v0c-0.132-0.599-0.488-1.009-1.069-1.229-0.581-0.221-1.314-0.234-2.199-0.04v0c-1.172 0.257-2.127 0.791-2.864 1.601-0.732 0.802-1.167 1.802-1.307 3v0c0.506 0.189 1.124 0.286 1.855 0.289 0.731 0.003 1.445-0.071 2.142-0.224zM150.755 31.444v0c-0.919 0.319-1.726 0.313-2.42-0.018-0.698-0.322-1.275-1.142-1.732-2.458v0c-0.308-0.888-0.596-2.041-0.862-3.458-0.273-1.416-0.532-2.924-0.777-4.526v0c-0.199-1.265-0.426-2.59-0.682-3.976-0.264-1.39-0.547-2.746-0.851-4.066-0.301-1.314-0.627-2.478-0.979-3.492v0c-0.405-1.165-0.885-2.131-1.44-2.898-0.562-0.765-1.282-1.132-2.161-1.102v0c-0.352-0.019-0.678-0.061-0.976-0.127-0.298-0.066-0.506-0.269-0.624-0.609v0c-0.149-0.428-0.143-0.96 0.018-1.594 0.152-0.639 0.477-1.259 0.973-1.862 0.496-0.603 1.141-1.042 1.935-1.318v0c1.045-0.363 1.892-0.251 2.54 0.336 0.646 0.58 1.171 1.453 1.576 2.618v0c0.116 0.334 0.219 0.682 0.311 1.046 0.091 0.364 0.172 0.738 0.241 1.123v0c0.293-2.021 0.963-3.873 2.009-5.557 1.046-1.683 2.488-2.843 4.327-3.481v0c1.839-0.638 3.5-0.52 4.983 0.355 1.489 0.873 2.599 2.365 3.332 4.475v0c0.542 1.562 0.826 3.171 0.85 4.828 0.031 1.655-0.19 3.234-0.662 4.739-0.481 1.501-1.219 2.819-2.215 3.956-0.996 1.136-2.259 1.97-3.79 2.501v0c-1.102 0.383-2.132 0.525-3.09 0.427-0.963-0.089-1.856-0.336-2.682-0.741v0c0.158 0.841 0.38 1.847 0.667 3.018 0.287 1.171 0.599 2.244 0.938 3.22v0c0.394 1.134 0.832 1.98 1.315 2.539 0.481 0.553 1.164 0.863 2.049 0.93v0c0.388 0.042 0.641 0.229 0.756 0.563v0c0.085 0.246 0.099 0.671 0.041 1.277-0.066 0.602-0.309 1.215-0.726 1.84-0.416 0.631-1.147 1.128-2.192 1.492zM153.015 11.552v0c1.745-0.606 2.901-1.625 3.47-3.057 0.568-1.432 0.602-2.87 0.101-4.312v0c-0.435-1.253-1.11-2.109-2.024-2.568-0.912-0.453-1.935-0.482-3.069-0.088v0c-1.165 0.405-2.072 1.104-2.722 2.099-0.647 1.001-1.095 2.162-1.342 3.482-0.241 1.319-0.345 2.675-0.313 4.068v0c2.037 0.909 4.004 1.034 5.899 0.376z" opacity="1" transform="matrix(1,0,0,1,0,0)" fill="#c5c6c7" class="wordmark-text-0" data-fill-palette-color="primary" id="text-0"></path></svg></g></svg></g></svg></g></svg></g><g transform="matrix(1,0,0,1,147.76033791046893,0)"><svg viewBox="0 0 99.99932417906213 117.3763925128931" height="117.3763925128931" width="99.99932417906213"><g><svg xmlns="http://www.w3.org/2000/svg" xmlns:xlink="http://www.w3.org/1999/xlink" version="1.1" x="0" y="0" viewBox="9.540636170063483 2.5 80.95936382993652 95.02782288289134" enable-background="new 0 0 100 100" xml:space="preserve" height="117.3763925128931" width="99.99932417906213" class="icon-icon-0" data-fill-palette-color="accent" id="icon-0"><path d="M54.2 2.5C48.7 2.5 43.4 3.7 38.7 6 26.3 11.8 17.7 24.3 17.7 38.8V44.8L10.3 59C8.4 62.6 10.2 65.5 14.2 65.5H17.7V78.9C17.7 83.1 21.1 86.5 25.3 86.5L35.8 84.9V95.5C35.8 96.8 37 97.7 38.4 97.5L76.1 90.8C77.5 90.5 78.7 89.2 78.7 87.7V65.5C85.9 58.9 90.5 49.4 90.5 38.8 90.4 18.8 74.2 2.5 54.2 2.5M43.4 20.5C36.8 24.3 32.8 31.4 32.8 39 32.8 41.2 31.1 42.9 28.9 42.9S25 41.2 25 39C25 28.6 30.6 19 39.5 13.8 41.4 12.7 43.7 13.4 44.8 15.2S45.3 19.4 43.4 20.5M54.1 17.7C51.9 17.7 50.2 16 50.2 13.8S51.9 9.9 54.1 9.9 58 11.6 58 13.8C58 15.9 56.2 17.7 54.1 17.7" fill="#45a29e" data-fill-palette-color="accent"></path></svg></g></svg></g><g></g></svg></g><defs></defs></svg><rect width="395.52" height="243.83187399141923" fill="none" stroke="none" visibility="hidden"></rect></g></svg></g></svg>