<svg width="28" height="28" viewBox="0 0 28 28" fill="none" xmlns="http://www.w3.org/2000/svg">
<circle cx="14" cy="14" r="14" fill="#7F57C2"/>
<path d="M8.39062 22V6H14.7031C15.9167 6 16.9505 6.23177 17.8047 6.69531C18.6589 7.15365 19.3099 7.79167 19.7578 8.60937C20.2109 9.42187 20.4375 10.3594 20.4375 11.4219C20.4375 12.4844 20.2083 13.4219 19.75 14.2344C19.2917 15.0469 18.6276 15.6797 17.7578 16.1328C16.8932 16.5859 15.8464 16.8125 14.6172 16.8125H10.5938V14.1016H14.0703C14.7214 14.1016 15.2578 13.9896 15.6797 13.7656C16.1068 13.5365 16.4245 13.2214 16.6328 12.8203C16.8464 12.4141 16.9531 11.9479 16.9531 11.4219C16.9531 10.8906 16.8464 10.4271 16.6328 10.0312C16.4245 9.63021 16.1068 9.32031 15.6797 9.10156C15.2526 8.8776 14.7109 8.76562 14.0547 8.76562H11.7734V22H8.39062Z" fill="#FEFEFB"/>
</svg>
