<svg width="317" height="79" viewBox="0 0 317 79" fill="none" xmlns="http://www.w3.org/2000/svg">
<circle cx="33.5" cy="45" r="32.5" stroke="#FFCC66" stroke-width="2"/>
<circle cx="66.5" cy="45" r="32.5" stroke="#FFCC66" stroke-width="2"/>
<line x1="42.5199" y1="22.6458" x2="65.5199" y2="36.6458" stroke="#FFCC66" stroke-width="2"/>
<line x1="35.4961" y1="54.6318" x2="57.2022" y2="67.0352" stroke="#FFCC66" stroke-width="2"/>
<line x1="33.4831" y1="44.6244" x2="62.4831" y2="60.6244" stroke="#FFCC66" stroke-width="2"/>
<line x1="35.4831" y1="36.6244" x2="64.4831" y2="52.6244" stroke="#FFCC66" stroke-width="2"/>
<line x1="37.4831" y1="28.6244" x2="66.4831" y2="44.6244" stroke="#FFCC66" stroke-width="2"/>
<path d="M121.756 34.06C123.195 34.06 124.46 33.8693 125.552 33.488C126.661 33.1067 127.589 32.578 128.334 31.902C129.097 31.2087 129.669 30.3853 130.05 29.432C130.431 28.4787 130.622 27.43 130.622 26.286C130.622 23.9113 129.885 22.0567 128.412 20.722C126.956 19.3873 124.737 18.72 121.756 18.72H115.776V34.06H121.756ZM121.756 14.742C124.113 14.742 126.159 15.0193 127.892 15.574C129.643 16.1113 131.09 16.8827 132.234 17.888C133.378 18.8933 134.227 20.1067 134.782 21.528C135.354 22.9493 135.64 24.5353 135.64 26.286C135.64 28.0193 135.337 29.6053 134.73 31.044C134.123 32.4827 133.231 33.722 132.052 34.762C130.891 35.802 129.443 36.6167 127.71 37.206C125.994 37.778 124.009 38.064 121.756 38.064H115.776V52H110.758V14.742H121.756ZM157.153 35.958C157.153 34.8833 156.997 33.904 156.685 33.02C156.391 32.1187 155.949 31.3473 155.359 30.706C154.787 30.0473 154.085 29.5447 153.253 29.198C152.421 28.834 151.477 28.652 150.419 28.652C148.201 28.652 146.441 29.302 145.141 30.602C143.859 31.8847 143.061 33.67 142.749 35.958H157.153ZM160.897 48.308C160.325 49.0013 159.641 49.608 158.843 50.128C158.046 50.6307 157.188 51.0467 156.269 51.376C155.368 51.7053 154.432 51.948 153.461 52.104C152.491 52.2773 151.529 52.364 150.575 52.364C148.755 52.364 147.074 52.0607 145.531 51.454C144.006 50.83 142.68 49.9287 141.553 48.75C140.444 47.554 139.577 46.0807 138.953 44.33C138.329 42.5793 138.017 40.5687 138.017 38.298C138.017 36.4607 138.295 34.7447 138.849 33.15C139.421 31.5553 140.236 30.1773 141.293 29.016C142.351 27.8373 143.642 26.9187 145.167 26.26C146.693 25.584 148.409 25.246 150.315 25.246C151.893 25.246 153.349 25.5147 154.683 26.052C156.035 26.572 157.197 27.3347 158.167 28.34C159.155 29.328 159.927 30.5587 160.481 32.032C161.036 33.488 161.313 35.152 161.313 37.024C161.313 37.752 161.235 38.2373 161.079 38.48C160.923 38.7227 160.629 38.844 160.195 38.844H142.593C142.645 40.508 142.871 41.9553 143.269 43.186C143.685 44.4167 144.257 45.448 144.985 46.28C145.713 47.0947 146.58 47.71 147.585 48.126C148.591 48.5247 149.717 48.724 150.965 48.724C152.127 48.724 153.123 48.594 153.955 48.334C154.805 48.0567 155.533 47.762 156.139 47.45C156.746 47.138 157.249 46.852 157.647 46.592C158.063 46.3147 158.419 46.176 158.713 46.176C159.095 46.176 159.389 46.3233 159.597 46.618L160.897 48.308ZM184.626 35.958C184.626 34.8833 184.47 33.904 184.158 33.02C183.863 32.1187 183.421 31.3473 182.832 30.706C182.26 30.0473 181.558 29.5447 180.726 29.198C179.894 28.834 178.949 28.652 177.892 28.652C175.673 28.652 173.914 29.302 172.614 30.602C171.331 31.8847 170.534 33.67 170.222 35.958H184.626ZM188.37 48.308C187.798 49.0013 187.113 49.608 186.316 50.128C185.519 50.6307 184.661 51.0467 183.742 51.376C182.841 51.7053 181.905 51.948 180.934 52.104C179.963 52.2773 179.001 52.364 178.048 52.364C176.228 52.364 174.547 52.0607 173.004 51.454C171.479 50.83 170.153 49.9287 169.026 48.75C167.917 47.554 167.05 46.0807 166.426 44.33C165.802 42.5793 165.49 40.5687 165.49 38.298C165.49 36.4607 165.767 34.7447 166.322 33.15C166.894 31.5553 167.709 30.1773 168.766 29.016C169.823 27.8373 171.115 26.9187 172.64 26.26C174.165 25.584 175.881 25.246 177.788 25.246C179.365 25.246 180.821 25.5147 182.156 26.052C183.508 26.572 184.669 27.3347 185.64 28.34C186.628 29.328 187.399 30.5587 187.954 32.032C188.509 33.488 188.786 35.152 188.786 37.024C188.786 37.752 188.708 38.2373 188.552 38.48C188.396 38.7227 188.101 38.844 187.668 38.844H170.066C170.118 40.508 170.343 41.9553 170.742 43.186C171.158 44.4167 171.73 45.448 172.458 46.28C173.186 47.0947 174.053 47.71 175.058 48.126C176.063 48.5247 177.19 48.724 178.438 48.724C179.599 48.724 180.596 48.594 181.428 48.334C182.277 48.0567 183.005 47.762 183.612 47.45C184.219 47.138 184.721 46.852 185.12 46.592C185.536 46.3147 185.891 46.176 186.186 46.176C186.567 46.176 186.862 46.3233 187.07 46.618L188.37 48.308ZM198.865 30.94C199.697 29.1373 200.719 27.7333 201.933 26.728C203.146 25.7053 204.628 25.194 206.379 25.194C206.933 25.194 207.462 25.2547 207.965 25.376C208.485 25.4973 208.944 25.688 209.343 25.948L209.005 29.406C208.901 29.8393 208.641 30.056 208.225 30.056C207.982 30.056 207.627 30.004 207.159 29.9C206.691 29.796 206.162 29.744 205.573 29.744C204.741 29.744 203.995 29.8653 203.337 30.108C202.695 30.3507 202.115 30.7147 201.595 31.2C201.092 31.668 200.633 32.2573 200.217 32.968C199.818 33.6613 199.454 34.4587 199.125 35.36V52H194.471V25.662H197.123C197.625 25.662 197.972 25.7573 198.163 25.948C198.353 26.1387 198.483 26.468 198.553 26.936L198.865 30.94ZM225.045 34.06C226.484 34.06 227.749 33.8693 228.841 33.488C229.95 33.1067 230.878 32.578 231.623 31.902C232.386 31.2087 232.958 30.3853 233.339 29.432C233.72 28.4787 233.911 27.43 233.911 26.286C233.911 23.9113 233.174 22.0567 231.701 20.722C230.245 19.3873 228.026 18.72 225.045 18.72H219.065V34.06H225.045ZM225.045 14.742C227.402 14.742 229.448 15.0193 231.181 15.574C232.932 16.1113 234.379 16.8827 235.523 17.888C236.667 18.8933 237.516 20.1067 238.071 21.528C238.643 22.9493 238.929 24.5353 238.929 26.286C238.929 28.0193 238.626 29.6053 238.019 31.044C237.412 32.4827 236.52 33.722 235.341 34.762C234.18 35.802 232.732 36.6167 230.999 37.206C229.283 37.778 227.298 38.064 225.045 38.064H219.065V52H214.047V14.742H225.045ZM248.072 30.94C248.904 29.1373 249.926 27.7333 251.14 26.728C252.353 25.7053 253.835 25.194 255.586 25.194C256.14 25.194 256.669 25.2547 257.172 25.376C257.692 25.4973 258.151 25.688 258.55 25.948L258.212 29.406C258.108 29.8393 257.848 30.056 257.432 30.056C257.189 30.056 256.834 30.004 256.366 29.9C255.898 29.796 255.369 29.744 254.78 29.744C253.948 29.744 253.202 29.8653 252.544 30.108C251.902 30.3507 251.322 30.7147 250.802 31.2C250.299 31.668 249.84 32.2573 249.424 32.968C249.025 33.6613 248.661 34.4587 248.332 35.36V52H243.678V25.662H246.33C246.832 25.662 247.179 25.7573 247.37 25.948C247.56 26.1387 247.69 26.468 247.76 26.936L248.072 30.94ZM279.181 35.958C279.181 34.8833 279.025 33.904 278.713 33.02C278.418 32.1187 277.976 31.3473 277.387 30.706C276.815 30.0473 276.113 29.5447 275.281 29.198C274.449 28.834 273.504 28.652 272.447 28.652C270.228 28.652 268.469 29.302 267.169 30.602C265.886 31.8847 265.089 33.67 264.777 35.958H279.181ZM282.925 48.308C282.353 49.0013 281.668 49.608 280.871 50.128C280.073 50.6307 279.215 51.0467 278.297 51.376C277.395 51.7053 276.459 51.948 275.489 52.104C274.518 52.2773 273.556 52.364 272.603 52.364C270.783 52.364 269.101 52.0607 267.559 51.454C266.033 50.83 264.707 49.9287 263.581 48.75C262.471 47.554 261.605 46.0807 260.981 44.33C260.357 42.5793 260.045 40.5687 260.045 38.298C260.045 36.4607 260.322 34.7447 260.877 33.15C261.449 31.5553 262.263 30.1773 263.321 29.016C264.378 27.8373 265.669 26.9187 267.195 26.26C268.72 25.584 270.436 25.246 272.343 25.246C273.92 25.246 275.376 25.5147 276.711 26.052C278.063 26.572 279.224 27.3347 280.195 28.34C281.183 29.328 281.954 30.5587 282.509 32.032C283.063 33.488 283.341 35.152 283.341 37.024C283.341 37.752 283.263 38.2373 283.107 38.48C282.951 38.7227 282.656 38.844 282.223 38.844H264.621C264.673 40.508 264.898 41.9553 265.297 43.186C265.713 44.4167 266.285 45.448 267.013 46.28C267.741 47.0947 268.607 47.71 269.613 48.126C270.618 48.5247 271.745 48.724 272.993 48.724C274.154 48.724 275.151 48.594 275.983 48.334C276.832 48.0567 277.56 47.762 278.167 47.45C278.773 47.138 279.276 46.852 279.675 46.592C280.091 46.3147 280.446 46.176 280.741 46.176C281.122 46.176 281.417 46.3233 281.625 46.618L282.925 48.308ZM293.679 45.656C294.529 46.8 295.456 47.606 296.461 48.074C297.467 48.542 298.593 48.776 299.841 48.776C302.303 48.776 304.192 47.9007 305.509 46.15C306.827 44.3993 307.485 41.9033 307.485 38.662C307.485 36.946 307.329 35.4727 307.017 34.242C306.723 33.0113 306.289 32.006 305.717 31.226C305.145 30.4287 304.443 29.848 303.611 29.484C302.779 29.12 301.835 28.938 300.777 28.938C299.269 28.938 297.943 29.2847 296.799 29.978C295.673 30.6713 294.633 31.6507 293.679 32.916V45.656ZM293.445 29.744C294.555 28.3747 295.837 27.274 297.293 26.442C298.749 25.61 300.413 25.194 302.285 25.194C303.811 25.194 305.189 25.4887 306.419 26.078C307.65 26.65 308.699 27.508 309.565 28.652C310.432 29.7787 311.099 31.1827 311.567 32.864C312.035 34.5453 312.269 36.478 312.269 38.662C312.269 40.6033 312.009 42.4147 311.489 44.096C310.969 45.76 310.215 47.2073 309.227 48.438C308.257 49.6513 307.061 50.6133 305.639 51.324C304.235 52.0173 302.649 52.364 300.881 52.364C299.269 52.364 297.883 52.0953 296.721 51.558C295.577 51.0033 294.563 50.2407 293.679 49.27V60.918H289.025V25.662H291.807C292.466 25.662 292.873 25.9827 293.029 26.624L293.445 29.744Z" fill="#FFCC66"/>
<path d="M113.048 77.096C112.483 77.096 112 76.9707 111.6 76.72C111.2 76.464 110.896 76.1173 110.688 75.68C110.48 75.2427 110.376 74.7493 110.376 74.2C110.376 73.656 110.477 73.1653 110.68 72.728C110.888 72.2907 111.192 71.944 111.592 71.688C111.992 71.432 112.477 71.304 113.048 71.304C113.688 71.304 114.208 71.4587 114.608 71.768C115.013 72.072 115.272 72.4987 115.384 73.048H114.64C114.555 72.7013 114.379 72.424 114.112 72.216C113.851 72.0027 113.496 71.896 113.048 71.896C112.605 71.896 112.237 72 111.944 72.208C111.651 72.4107 111.429 72.6853 111.28 73.032C111.136 73.3787 111.064 73.768 111.064 74.2C111.064 74.6427 111.139 75.0373 111.288 75.384C111.443 75.7307 111.667 76.0053 111.96 76.208C112.253 76.4053 112.616 76.504 113.048 76.504C113.496 76.504 113.851 76.4027 114.112 76.2C114.379 75.992 114.555 75.7173 114.64 75.376H115.384C115.272 75.9147 115.013 76.336 114.608 76.64C114.208 76.944 113.688 77.096 113.048 77.096ZM122.494 77.096C122.067 77.096 121.683 77.024 121.342 76.88C121 76.7307 120.71 76.5253 120.47 76.264C120.23 76.0027 120.046 75.696 119.918 75.344C119.795 74.992 119.734 74.6107 119.734 74.2C119.734 73.7893 119.795 73.408 119.918 73.056C120.046 72.704 120.23 72.3973 120.47 72.136C120.71 71.8747 120.998 71.672 121.334 71.528C121.675 71.3787 122.062 71.304 122.494 71.304C122.92 71.304 123.302 71.376 123.638 71.52C123.979 71.6587 124.27 71.8587 124.51 72.12C124.75 72.376 124.934 72.6827 125.062 73.04C125.19 73.392 125.254 73.7787 125.254 74.2C125.254 74.6213 125.19 75.0107 125.062 75.368C124.934 75.72 124.75 76.0267 124.51 76.288C124.27 76.544 123.979 76.744 123.638 76.888C123.302 77.0267 122.92 77.096 122.494 77.096ZM122.494 76.504C122.931 76.504 123.304 76.4053 123.614 76.208C123.923 76.0107 124.158 75.7387 124.318 75.392C124.483 75.0453 124.566 74.648 124.566 74.2C124.566 73.7413 124.483 73.3413 124.318 73C124.158 72.6533 123.923 72.384 123.614 72.192C123.304 72 122.931 71.904 122.494 71.904C122.062 71.904 121.691 72.0027 121.382 72.2C121.072 72.3973 120.835 72.6693 120.67 73.016C120.504 73.3573 120.422 73.752 120.422 74.2C120.422 74.6427 120.504 75.04 120.67 75.392C120.835 75.7387 121.072 76.0107 121.382 76.208C121.691 76.4053 122.062 76.504 122.494 76.504ZM129.823 77V71.4H131.543C132.205 71.4 132.746 71.5147 133.167 71.744C133.594 71.968 133.909 72.2907 134.111 72.712C134.319 73.128 134.423 73.6293 134.423 74.216C134.423 74.792 134.319 75.288 134.111 75.704C133.909 76.12 133.594 76.44 133.167 76.664C132.746 76.888 132.205 77 131.543 77H129.823ZM130.495 76.44H131.527C132.061 76.44 132.487 76.3547 132.807 76.184C133.133 76.008 133.367 75.7547 133.511 75.424C133.655 75.088 133.727 74.6853 133.727 74.216C133.727 73.4533 133.551 72.888 133.199 72.52C132.847 72.1467 132.29 71.96 131.527 71.96H130.495V76.44ZM138.994 77V71.4H139.666V77H138.994ZM144.453 77V71.4H145.125L148.109 75.888V71.4H148.781V77H148.109L145.125 72.512V77H144.453ZM155.977 77.096C155.443 77.096 154.979 76.9733 154.585 76.728C154.195 76.4773 153.891 76.136 153.673 75.704C153.459 75.2667 153.353 74.768 153.353 74.208C153.353 73.6533 153.459 73.1573 153.673 72.72C153.886 72.2827 154.195 71.9387 154.601 71.688C155.006 71.432 155.497 71.304 156.073 71.304C156.702 71.304 157.225 71.456 157.641 71.76C158.062 72.064 158.334 72.4827 158.457 73.016H157.681C157.606 72.68 157.427 72.4133 157.145 72.216C156.867 72.0187 156.51 71.92 156.073 71.92C155.63 71.92 155.257 72.0213 154.953 72.224C154.649 72.4267 154.419 72.7013 154.265 73.048C154.115 73.3893 154.041 73.776 154.041 74.208C154.041 74.6453 154.118 75.0373 154.273 75.384C154.427 75.7307 154.651 76.0027 154.945 76.2C155.238 76.3973 155.59 76.496 156.001 76.496C156.598 76.496 157.049 76.3227 157.353 75.976C157.657 75.624 157.83 75.144 157.873 74.536H155.857V74.008H158.561V77H157.945L157.889 76.08C157.686 76.4053 157.438 76.656 157.145 76.832C156.851 77.008 156.462 77.096 155.977 77.096ZM162.647 77.952L163.111 76.184H163.807L163.111 77.952H162.647ZM174.993 77V71.952H173.321V71.4H177.337V71.952H175.665V77H174.993ZM184.02 77.096C183.594 77.096 183.21 77.024 182.868 76.88C182.527 76.7307 182.236 76.5253 181.996 76.264C181.756 76.0027 181.572 75.696 181.444 75.344C181.322 74.992 181.26 74.6107 181.26 74.2C181.26 73.7893 181.322 73.408 181.444 73.056C181.572 72.704 181.756 72.3973 181.996 72.136C182.236 71.8747 182.524 71.672 182.86 71.528C183.202 71.3787 183.588 71.304 184.02 71.304C184.447 71.304 184.828 71.376 185.164 71.52C185.506 71.6587 185.796 71.8587 186.036 72.12C186.276 72.376 186.46 72.6827 186.588 73.04C186.716 73.392 186.78 73.7787 186.78 74.2C186.78 74.6213 186.716 75.0107 186.588 75.368C186.46 75.72 186.276 76.0267 186.036 76.288C185.796 76.544 185.506 76.744 185.164 76.888C184.828 77.0267 184.447 77.096 184.02 77.096ZM184.02 76.504C184.458 76.504 184.831 76.4053 185.14 76.208C185.45 76.0107 185.684 75.7387 185.844 75.392C186.01 75.0453 186.092 74.648 186.092 74.2C186.092 73.7413 186.01 73.3413 185.844 73C185.684 72.6533 185.45 72.384 185.14 72.192C184.831 72 184.458 71.904 184.02 71.904C183.588 71.904 183.218 72.0027 182.908 72.2C182.599 72.3973 182.362 72.6693 182.196 73.016C182.031 73.3573 181.948 73.752 181.948 74.2C181.948 74.6427 182.031 75.04 182.196 75.392C182.362 75.7387 182.599 76.0107 182.908 76.208C183.218 76.4053 183.588 76.504 184.02 76.504ZM193.758 77.096C193.224 77.096 192.76 76.9733 192.366 76.728C191.976 76.4773 191.672 76.136 191.454 75.704C191.24 75.2667 191.134 74.768 191.134 74.208C191.134 73.6533 191.24 73.1573 191.454 72.72C191.667 72.2827 191.976 71.9387 192.382 71.688C192.787 71.432 193.278 71.304 193.854 71.304C194.483 71.304 195.006 71.456 195.422 71.76C195.843 72.064 196.115 72.4827 196.238 73.016H195.462C195.387 72.68 195.208 72.4133 194.926 72.216C194.648 72.0187 194.291 71.92 193.854 71.92C193.411 71.92 193.038 72.0213 192.734 72.224C192.43 72.4267 192.2 72.7013 192.046 73.048C191.896 73.3893 191.822 73.776 191.822 74.208C191.822 74.6453 191.899 75.0373 192.054 75.384C192.208 75.7307 192.432 76.0027 192.726 76.2C193.019 76.3973 193.371 76.496 193.782 76.496C194.379 76.496 194.83 76.3227 195.134 75.976C195.438 75.624 195.611 75.144 195.654 74.536H193.638V74.008H196.342V77H195.726L195.67 76.08C195.467 76.4053 195.219 76.656 194.926 76.832C194.632 77.008 194.243 77.096 193.758 77.096ZM201.004 77V71.4H204.468V71.952H201.676V73.768H204.116V74.312H201.676V76.448H204.468V77H201.004ZM210.432 77V71.952H208.76V71.4H212.776V71.952H211.104V77H210.432ZM217.197 77V71.4H217.869V73.76H220.773V71.4H221.445V77H220.773V74.312H217.869V77H217.197ZM226.226 77V71.4H229.69V71.952H226.898V73.768H229.338V74.312H226.898V76.448H229.69V77H226.226ZM234.342 77V71.4H235.998C236.393 71.4 236.729 71.4587 237.006 71.576C237.283 71.688 237.497 71.8587 237.646 72.088C237.795 72.3173 237.87 72.608 237.87 72.96C237.87 73.3973 237.755 73.728 237.526 73.952C237.302 74.176 236.995 74.3227 236.606 74.392L238.214 77H237.382L235.942 74.52H235.014V77H234.342ZM235.014 73.952H235.982C236.281 73.952 236.518 73.9173 236.694 73.848C236.87 73.7733 236.995 73.6613 237.07 73.512C237.145 73.3627 237.182 73.1787 237.182 72.96C237.182 72.736 237.145 72.5493 237.07 72.4C236.995 72.2507 236.87 72.1413 236.694 72.072C236.518 71.9973 236.281 71.96 235.982 71.96H235.014V73.952ZM242.876 77.04C242.743 77.04 242.631 76.9973 242.54 76.912C242.455 76.8213 242.412 76.712 242.412 76.584C242.412 76.456 242.455 76.3493 242.54 76.264C242.631 76.1733 242.743 76.128 242.876 76.128C243.004 76.128 243.111 76.1733 243.196 76.264C243.287 76.3493 243.332 76.456 243.332 76.584C243.332 76.712 243.287 76.8213 243.196 76.912C243.111 76.9973 243.004 77.04 242.876 77.04Z" fill="#FFCC66"/>
</svg>
